<svg width="1024" height="1024" viewBox="0 0 128 128" fill="none" xmlns="http://www.w3.org/2000/svg">
  <path d="M51.1426 33.6857V34.0909C51.1426 37.8578 54.1254 40.9482 57.8899 41.0816C59.1413 41.1259 60.3578 41.5054 61.4125 42.1803L65.5195 44.8084C68.7155 46.8537 72.9423 46.1368 75.2853 43.1521C76.3038 41.8546 76.8575 40.2527 76.8575 38.6031V33.6857V10.3924H87.0485V47.3349C87.0484 53.343 85.3122 58.374 82.1537 62.1206C76.5218 68.8008 69.0955 75.5451 69.0955 84.2826V103.345C69.0957 109.541 74.1185 114.564 80.3144 114.564V117.608H64H47.6856V114.564C53.8815 114.564 58.9043 109.541 58.9045 103.345V84.3315C58.9045 75.5777 51.4421 68.8295 45.8149 62.1241C42.6789 58.3869 40.9516 53.3624 40.9515 47.3349V10.3924H51.1426V33.6857Z" fill="white" />
</svg>
